<svg xmlns="http://www.w3.org/2000/svg" xmlns:xlink="http://www.w3.org/1999/xlink" id="Layer_1" viewBox="0 0 780 440"><defs><linearGradient id="linear-gradient" x1="529.82" y1="-22.9" x2="103.24" y2="712.69" gradientUnits="userSpaceOnUse"><stop offset="0" stop-color="#ccf1ea"></stop><stop offset="1" stop-color="#7dead5"></stop></linearGradient></defs><rect x="-12.86" y="-6.99" width="803.92" height="453.49" fill="url(#linear-gradient)" stroke-width="0"></rect><rect x="107.91" y="129.96" width="327.67" height="208.32" rx="16.54" ry="16.54" fill="#ccf1ea" stroke="#040404" stroke-linecap="round" stroke-linejoin="round" stroke-width="1.5"></rect><rect x="124.35" y="113.65" width="327.67" height="208.32" rx="16.54" ry="16.54" fill="#fff" stroke="#040404" stroke-linecap="round" stroke-linejoin="round" stroke-width="1.5"></rect><line x1="124.16" y1="177.79" x2="451.41" y2="177.79" fill="#fff" stroke="#040404" stroke-linecap="round" stroke-linejoin="round" stroke-width="1.5"></line><circle cx="158.4" cy="145.85" r="20.11" fill="#026661" stroke="#141d1d" stroke-miterlimit="10" stroke-width="1.5"></circle><path d="m165.57,139.46c-.22-3.98-3.44-7.14-7.39-7.14s-7.41,3.39-7.41,7.56c0,.17.01.34.03.51.26,3.94,3.46,7.05,7.38,7.05s7.41-3.39,7.41-7.56c0-.14-.01-.28-.02-.42Z" fill="#dcbeb4" stroke="#162020" stroke-miterlimit="10" stroke-width="1.5"></path><path d="m158.56,149.59h0c-6.75,0-12.35,4.93-13.39,11.39,3.54,3.09,8.16,4.97,13.23,4.97s9.93-1.97,13.5-5.21c-1.14-6.34-6.68-11.15-13.35-11.15Z" fill="#59cb59" stroke="#162020" stroke-miterlimit="10" stroke-width="1.5"></path><circle cx="547.69" cy="140.85" r="65.39" fill="#98e58e" stroke="#162020" stroke-miterlimit="10" stroke-width="1.5"></circle><path d="m571.02,120.07c-.71-12.94-11.17-23.22-24.02-23.22s-24.09,11.01-24.09,24.6c0,.56.05,1.11.08,1.67.84,12.8,11.25,22.93,24.01,22.93s24.09-11.01,24.09-24.6c0-.47-.04-.92-.07-1.38Z" fill="#8d6a56" stroke="#002138" stroke-linecap="round" stroke-linejoin="round" stroke-width="1.5"></path><path d="m548.2,153.03h0c-21.95,0-40.16,16.04-43.54,37.04,11.5,10.06,26.55,16.18,43.03,16.18s32.31-6.42,43.92-16.94c-3.7-20.62-21.72-36.27-43.41-36.27Z" fill="#ebf9eb" stroke="#141d1d" stroke-miterlimit="10" stroke-width="1.5"></path><circle cx="547.69" cy="300.4" r="65.39" fill="#08c4b2" stroke="#141d1d" stroke-miterlimit="10" stroke-width="1.5"></circle><path d="m571.02,279.62c-.71-12.94-11.17-23.22-24.02-23.22s-24.09,11.01-24.09,24.6c0,.56.05,1.11.08,1.67.84,12.8,11.25,22.93,24.01,22.93s24.09-11.01,24.09-24.6c0-.47-.04-.92-.07-1.38Z" fill="#efba9b" stroke="#040404" stroke-linecap="round" stroke-linejoin="round" stroke-width="1.5"></path><path d="m548.2,312.58h0c-21.95,0-40.16,16.04-43.54,37.04,11.5,10.06,26.55,16.18,43.03,16.18s32.31-6.42,43.92-16.94c-3.7-20.62-21.72-36.27-43.41-36.27Z" fill="#026661" stroke="#141d1d" stroke-miterlimit="10" stroke-width="1.5"></path><line x1="196.14" y1="145.84" x2="345.4" y2="145.84" fill="#dd9903" stroke="#162020" stroke-miterlimit="10" stroke-width="1.5"></line><line x1="147.69" y1="277.03" x2="430.52" y2="277.03" fill="#dd9903" stroke="#162020" stroke-miterlimit="10" stroke-width="1.5"></line><path d="m174.52,199.47l5.63,11.41c.32.64.93,1.09,1.64,1.19l12.59,1.83c1.79.26,2.5,2.45,1.21,3.71l-9.11,8.88c-.51.5-.75,1.22-.63,1.93l2.15,12.54c.31,1.78-1.56,3.14-3.16,2.3l-11.26-5.92c-.63-.33-1.39-.33-2.03,0l-11.26,5.92c-1.6.84-3.47-.52-3.16-2.3l2.15-12.54c.12-.71-.11-1.43-.63-1.93l-9.11-8.88c-1.29-1.26-.58-3.46,1.21-3.71l12.59-1.83c.71-.1,1.32-.55,1.64-1.19l5.63-11.41c.8-1.62,3.11-1.62,3.91,0Z" fill="#08c4b2" stroke="#141d1d" stroke-miterlimit="10" stroke-width="1.5"></path><path d="m232.58,199.47l5.63,11.41c.32.64.93,1.09,1.64,1.19l12.59,1.83c1.79.26,2.5,2.45,1.21,3.71l-9.11,8.88c-.51.5-.75,1.22-.63,1.93l2.15,12.54c.31,1.78-1.56,3.14-3.16,2.3l-11.26-5.92c-.63-.33-1.39-.33-2.03,0l-11.26,5.92c-1.6.84-3.47-.52-3.16-2.3l2.15-12.54c.12-.71-.11-1.43-.63-1.93l-9.11-8.88c-1.29-1.26-.58-3.46,1.21-3.71l12.59-1.83c.71-.1,1.32-.55,1.64-1.19l5.63-11.41c.8-1.62,3.11-1.62,3.91,0Z" fill="#08c4b2" stroke="#141d1d" stroke-miterlimit="10" stroke-width="1.5"></path><path d="m290.65,199.47l5.63,11.41c.32.64.93,1.09,1.64,1.19l12.59,1.83c1.79.26,2.5,2.45,1.21,3.71l-9.11,8.88c-.51.5-.75,1.22-.63,1.93l2.15,12.54c.31,1.78-1.56,3.14-3.16,2.3l-11.26-5.92c-.63-.33-1.39-.33-2.03,0l-11.26,5.92c-1.6.84-3.47-.52-3.16-2.3l2.15-12.54c.12-.71-.11-1.43-.63-1.93l-9.11-8.88c-1.29-1.26-.58-3.46,1.21-3.71l12.59-1.83c.71-.1,1.32-.55,1.64-1.19l5.63-11.41c.8-1.62,3.11-1.62,3.91,0Z" fill="#08c4b2" stroke="#141d1d" stroke-miterlimit="10" stroke-width="1.5"></path><path d="m348.71,199.47l5.63,11.41c.32.64.93,1.09,1.64,1.19l12.59,1.83c1.79.26,2.5,2.45,1.21,3.71l-9.11,8.88c-.51.5-.75,1.22-.63,1.93l2.15,12.54c.31,1.78-1.56,3.14-3.16,2.3l-11.26-5.92c-.63-.33-1.39-.33-2.03,0l-11.26,5.92c-1.6.84-3.47-.52-3.16-2.3l2.15-12.54c.12-.71-.11-1.43-.63-1.93l-9.11-8.88c-1.29-1.26-.58-3.46,1.21-3.71l12.59-1.83c.71-.1,1.32-.55,1.64-1.19l5.63-11.41c.8-1.62,3.11-1.62,3.91,0Z" fill="#08c4b2" stroke="#141d1d" stroke-miterlimit="10" stroke-width="1.5"></path><path d="m406.77,199.47l5.63,11.41c.32.64.93,1.09,1.64,1.19l12.59,1.83c1.79.26,2.5,2.45,1.21,3.71l-9.11,8.88c-.51.5-.75,1.22-.63,1.93l2.15,12.54c.31,1.78-1.56,3.14-3.16,2.3l-11.26-5.92c-.63-.33-1.39-.33-2.03,0l-11.26,5.92c-1.6.84-3.47-.52-3.16-2.3l2.15-12.54c.12-.71-.11-1.43-.63-1.93l-9.11-8.88c-1.29-1.26-.58-3.46,1.21-3.71l12.59-1.83c.71-.1,1.32-.55,1.64-1.19l5.63-11.41c.8-1.62,3.11-1.62,3.91,0Z" fill="#08c4b2" stroke="#141d1d" stroke-miterlimit="10" stroke-width="1.5"></path><path d="m632.25,333.15h0s.03.02.03.02l24.25-24.55c6.16-6.22,6.11-16.25-.11-22.41,0,0,0,0,0,0l-.02-.02c-6.22-6.14-16.24-6.08-22.39.13l-1.98,2h0s0,0,0,0l-2-1.98c-6.21-6.15-16.23-6.11-22.39.09l-.02.02c-6.16,6.22-6.11,16.25.11,22.41,0,0,0,0,0,0l24.49,24.3.03-.03h0Z" fill="#98e58e" stroke="#040404" stroke-miterlimit="10" stroke-width="1.5"></path><path d="m659.88,140.33l-1.91.6,1.21,1.6c.55.73.84,1.6.84,2.51,0,2.05-1.47,3.78-3.48,4.11l-1.91.32.9,1.72c.31.6.47,1.24.47,1.92,0,2.2-1.71,4.02-3.91,4.16h-24.07c-.07,0-2.98-.05-5.12-1.86-.46-.39-.89-.67-1.34-.88l-.52-.23v-22.25l2.51-2.15,8.47-15.71c.37-.62.65-1.28.82-1.98.17-.71.23-1.44.18-2.18l-.67-8.81c.58-.33,1.25-.51,1.92-.51,3.66,0,6.79,5.84,6.79,10.63,0,.66-.05,1.33-.15,1.98l-1.47,9.54h18.37c1.17,0,2.33.49,3.18,1.34.79.8,1.22,1.81,1.21,2.86,0,1.3-.61,2.5-1.66,3.3l-1.71,1.29,1.87,1.06c1.31.74,2.12,2.13,2.12,3.63,0,1.84-1.18,3.44-2.93,3.99h0Z" fill="#08c4b2" stroke="#040404" stroke-miterlimit="10" stroke-width="1.5"></path><rect x="605.37" y="128.42" width="16.42" height="29.15" rx="1.55" ry="1.55" fill="#08c4b2" stroke="#040404" stroke-miterlimit="10" stroke-width="1.5"></rect><circle cx="426.47" cy="302.31" r="2.17" fill="#162020" stroke-width="0"></circle><circle cx="418.54" cy="302.31" r="2.17" fill="#162020" stroke-width="0"></circle><circle cx="410.61" cy="302.31" r="2.17" fill="#162020" stroke-width="0"></circle></svg>