<!DOCTYPE svg PUBLIC "-//W3C//DTD SVG 1.1//EN" "http://www.w3.org/Graphics/SVG/1.1/DTD/svg11.dtd">
<!-- Uploaded to: SVG Repo, www.svgrepo.com, Transformed by: SVG Repo Mixer Tools -->
<svg fill="#ffffff" width="128px" height="128px" viewBox="-12.16 -12.16 56.32 56.32" xmlns="http://www.w3.org/2000/svg" stroke="#ffffff" stroke-width="0.00032">
<g id="SVGRepo_bgCarrier" stroke-width="0" transform="translate(0,0), scale(1)">
<rect x="-12.16" y="-12.16" width="56.32" height="56.32" rx="28.16" fill="#2557a7" strokewidth="0"/>
</g>
<g id="SVGRepo_tracerCarrier" stroke-linecap="round" stroke-linejoin="round" stroke="#CCCCCC" stroke-width="0.44800000000000006"/>
<g id="SVGRepo_iconCarrier"> <path d="M19.76 13.745c-3.197 1.64-6.776-1.417-5.661-4.833 1.12-3.417 5.813-3.767 7.423-0.552 1.005 1.973 0.219 4.389-1.761 5.389zM15.469 0.76c3.291-1.197 7.057-1.135 9.875 1.313 0.593 0.489 1.063 1.115 1.364 1.828 0.281 0.916-1-0.095-1.172-0.224-0.891-0.609-1.853-1.099-2.869-1.464-5.552-1.697-10.803 1.396-14.047 6.208-1.323 2.12-2.333 4.423-3 6.833-0.063 0.297-0.156 0.584-0.281 0.86-0.145 0.271-0.068-0.735-0.068-0.765 0.12-1.005 0.313-2.005 0.573-2.985 1.505-5.244 4.839-9.609 9.625-11.609zM15.516 28.755v-11.687c0.333 0.036 0.645 0.052 0.979 0.052 1.516 0.005 3-0.412 4.297-1.193v12.823c0 1.1-0.204 1.907-0.699 2.439-0.495 0.541-1.197 0.839-1.932 0.812-0.724 0.027-1.421-0.271-1.907-0.812-0.489-0.537-0.744-1.349-0.744-2.433z"/> </g>
</svg>