<svg width="24" height="24" viewBox="0 0 24 24" fill="none" xmlns="http://www.w3.org/2000/svg">
<path d="M10.8159 1.64417C11.1886 0.497144 12.8114 0.497143 13.1841 1.64417L15.0882 7.50447C15.2549 8.01744 15.7329 8.36475 16.2723 8.36475H22.4341C23.6402 8.36475 24.1417 9.90806 23.1659 10.617L18.1809 14.2388C17.7445 14.5559 17.5619 15.1178 17.7286 15.6308L19.6327 21.4911C20.0054 22.6381 18.6926 23.5919 17.7169 22.883L12.7318 19.2612C12.2954 18.9441 11.7046 18.9441 11.2682 19.2612L6.28314 22.883C5.30742 23.5919 3.99459 22.6381 4.36728 21.4911L6.27141 15.6308C6.43808 15.1178 6.2555 14.5559 5.81914 14.2388L0.834072 10.617C-0.14165 9.90807 0.359803 8.36475 1.56586 8.36475H7.72775C8.26711 8.36475 8.74514 8.01744 8.91181 7.50447L10.8159 1.64417Z" fill="#FBBC05"/>
</svg>
